<svg width="25" height="25" viewBox="0 0 25 25" fill="none" xmlns="http://www.w3.org/2000/svg">
<g clip-path="url(#clip0)">
<path d="M24.705 5.85419V5.85169L14.12 2.59461C13.8788 2.51941 13.6204 2.51941 13.3792 2.59461L0.291667 6.68586L0.294167 6.69461C0.249862 6.70543 0.207634 6.72344 0.169167 6.74794C0.0627162 6.82654 -7.07152e-05 6.95104 5.97705e-08 7.08336V17.3442C0.00234763 17.8607 0.32005 18.3233 0.80125 18.5109L11.1004 22.4721C11.195 22.5099 11.3004 22.5099 11.395 22.4721V22.475L24.1867 17.6775C24.6749 17.4939 24.9986 17.0275 25 16.5059V6.25003C25.0026 6.06652 24.8816 5.90416 24.705 5.85419ZM10.8333 21.4767L1.10042 17.7334C0.940023 17.6707 0.834157 17.5164 0.833333 17.3442V7.64753L10.8333 10.7242V21.4767ZM1.82333 7.08003L13.6275 3.39169C13.7078 3.36587 13.7942 3.36587 13.8746 3.39169L23.1767 6.25378L11.25 9.98044L1.82333 7.08003ZM24.1667 16.5059C24.1666 16.6795 24.0589 16.8349 23.8963 16.8959L11.6667 21.4821V10.7229L24.1667 6.81669V16.5059Z" fill="#202020"/>
<path d="M17.0834 18.3335C17.3135 18.3335 17.5001 18.1469 17.5001 17.9168C17.5001 17.6867 17.3135 17.5001 17.0834 17.5001C16.8533 17.5001 16.6667 17.6867 16.6667 17.9168C16.6667 18.1469 16.8533 18.3335 17.0834 18.3335Z" fill="#202020"/>
<path d="M17.4999 15.8333C17.73 15.8333 17.9166 15.6468 17.9166 15.4167C17.9166 15.1865 17.73 15 17.4999 15C17.2698 15 17.0833 15.1865 17.0833 15.4167C17.0833 15.6468 17.2698 15.8333 17.4999 15.8333Z" fill="#202020"/>
<path d="M19.1667 17.0833C19.3968 17.0833 19.5833 16.8968 19.5833 16.6667C19.5833 16.4365 19.3968 16.25 19.1667 16.25C18.9365 16.25 18.75 16.4365 18.75 16.6667C18.75 16.8968 18.9365 17.0833 19.1667 17.0833Z" fill="#202020"/>
<path d="M20.4167 15C20.6468 15 20.8333 14.8134 20.8333 14.5833C20.8333 14.3532 20.6468 14.1666 20.4167 14.1666C20.1865 14.1666 20 14.3532 20 14.5833C20 14.8134 20.1865 15 20.4167 15Z" fill="#202020"/>
<path d="M13.3334 14.5833C13.5635 14.5833 13.7501 14.3968 13.7501 14.1667C13.7501 13.9365 13.5635 13.75 13.3334 13.75C13.1033 13.75 12.9167 13.9365 12.9167 14.1667C12.9167 14.3968 13.1033 14.5833 13.3334 14.5833Z" fill="#202020"/>
<path d="M22.0834 13.3333C22.3135 13.3333 22.5001 13.1468 22.5001 12.9167C22.5001 12.6865 22.3135 12.5 22.0834 12.5C21.8533 12.5 21.6667 12.6865 21.6667 12.9167C21.6667 13.1468 21.8533 13.3333 22.0834 13.3333Z" fill="#202020"/>
<path d="M22.4999 9.58334C22.73 9.58334 22.9166 9.39679 22.9166 9.16667C22.9166 8.93655 22.73 8.75 22.4999 8.75C22.2698 8.75 22.0833 8.93655 22.0833 9.16667C22.0833 9.39679 22.2698 9.58334 22.4999 9.58334Z" fill="#202020"/>
<path d="M21.2499 11.2501C21.48 11.2501 21.6666 11.0635 21.6666 10.8334C21.6666 10.6033 21.48 10.4167 21.2499 10.4167C21.0198 10.4167 20.8333 10.6033 20.8333 10.8334C20.8333 11.0635 21.0198 11.2501 21.2499 11.2501Z" fill="#202020"/>
<path d="M18.7499 10.8333C18.98 10.8333 19.1666 10.6468 19.1666 10.4167C19.1666 10.1865 18.98 10 18.7499 10C18.5198 10 18.3333 10.1865 18.3333 10.4167C18.3333 10.6468 18.5198 10.8333 18.7499 10.8333Z" fill="#202020"/>
<path d="M17.0834 12.5001C17.3135 12.5001 17.5001 12.3135 17.5001 12.0834C17.5001 11.8533 17.3135 11.6667 17.0834 11.6667C16.8533 11.6667 16.6667 11.8533 16.6667 12.0834C16.6667 12.3135 16.8533 12.5001 17.0834 12.5001Z" fill="#202020"/>
<path d="M19.1667 13.3333C19.3968 13.3333 19.5833 13.1468 19.5833 12.9167C19.5833 12.6865 19.3968 12.5 19.1667 12.5C18.9365 12.5 18.75 12.6865 18.75 12.9167C18.75 13.1468 18.9365 13.3333 19.1667 13.3333Z" fill="#202020"/>
<path d="M15.8332 14.1667C16.0633 14.1667 16.2498 13.9802 16.2498 13.75C16.2498 13.5199 16.0633 13.3334 15.8332 13.3334C15.603 13.3334 15.4165 13.5199 15.4165 13.75C15.4165 13.9802 15.603 14.1667 15.8332 14.1667Z" fill="#202020"/>
<path d="M14.1667 12.0835C14.3968 12.0835 14.5833 11.8969 14.5833 11.6668C14.5833 11.4367 14.3968 11.2501 14.1667 11.2501C13.9365 11.2501 13.75 11.4367 13.75 11.6668C13.75 11.8969 13.9365 12.0835 14.1667 12.0835Z" fill="#202020"/>
<path d="M12.0834 8.74996C12.3135 8.74996 12.5001 8.56341 12.5001 8.33329C12.5001 8.10317 12.3135 7.91663 12.0834 7.91663C11.8533 7.91663 11.6667 8.10317 11.6667 8.33329C11.6667 8.56341 11.8533 8.74996 12.0834 8.74996Z" fill="#202020"/>
<path d="M6.24992 7.49996C6.48004 7.49996 6.66659 7.31341 6.66659 7.08329C6.66659 6.85317 6.48004 6.66663 6.24992 6.66663C6.0198 6.66663 5.83325 6.85317 5.83325 7.08329C5.83325 7.31341 6.0198 7.49996 6.24992 7.49996Z" fill="#202020"/>
<path d="M9.58317 8.74996C9.81329 8.74996 9.99984 8.56341 9.99984 8.33329C9.99984 8.10317 9.81329 7.91663 9.58317 7.91663C9.35305 7.91663 9.1665 8.10317 9.1665 8.33329C9.1665 8.56341 9.35305 8.74996 9.58317 8.74996Z" fill="#202020"/>
<path d="M10.8334 6.25008C11.0635 6.25008 11.2501 6.06353 11.2501 5.83342C11.2501 5.6033 11.0635 5.41675 10.8334 5.41675C10.6033 5.41675 10.4167 5.6033 10.4167 5.83342C10.4167 6.06353 10.6033 6.25008 10.8334 6.25008Z" fill="#202020"/>
<path d="M19.1667 6.66671C19.3968 6.66671 19.5833 6.48016 19.5833 6.25004C19.5833 6.01992 19.3968 5.83337 19.1667 5.83337C18.9365 5.83337 18.75 6.01992 18.75 6.25004C18.75 6.48016 18.9365 6.66671 19.1667 6.66671Z" fill="#202020"/>
<path d="M16.6667 7.08333C16.8968 7.08333 17.0833 6.89679 17.0833 6.66667C17.0833 6.43655 16.8968 6.25 16.6667 6.25C16.4365 6.25 16.25 6.43655 16.25 6.66667C16.25 6.89679 16.4365 7.08333 16.6667 7.08333Z" fill="#202020"/>
<path d="M14.5834 7.91671C14.8135 7.91671 15.0001 7.73016 15.0001 7.50004C15.0001 7.26992 14.8135 7.08337 14.5834 7.08337C14.3533 7.08337 14.1667 7.26992 14.1667 7.50004C14.1667 7.73016 14.3533 7.91671 14.5834 7.91671Z" fill="#202020"/>
<path d="M15.4167 5.83346C15.6468 5.83346 15.8333 5.64691 15.8333 5.41679C15.8333 5.18667 15.6468 5.00012 15.4167 5.00012C15.1865 5.00012 15 5.18667 15 5.41679C15 5.64691 15.1865 5.83346 15.4167 5.83346Z" fill="#202020"/>
<path d="M8.74992 7.08333C8.98004 7.08333 9.16658 6.89679 9.16658 6.66667C9.16658 6.43655 8.98004 6.25 8.74992 6.25C8.5198 6.25 8.33325 6.43655 8.33325 6.66667C8.33325 6.89679 8.5198 7.08333 8.74992 7.08333Z" fill="#202020"/>
<path d="M12.9167 7.08333C13.1468 7.08333 13.3333 6.89679 13.3333 6.66667C13.3333 6.43655 13.1468 6.25 12.9167 6.25C12.6865 6.25 12.5 6.43655 12.5 6.66667C12.5 6.89679 12.6865 7.08333 12.9167 7.08333Z" fill="#202020"/>
<path d="M13.3334 5.41671C13.5635 5.41671 13.7501 5.23016 13.7501 5.00004C13.7501 4.76992 13.5635 4.58337 13.3334 4.58337C13.1033 4.58337 12.9167 4.76992 12.9167 5.00004C12.9167 5.23016 13.1033 5.41671 13.3334 5.41671Z" fill="#202020"/>
<path d="M14.5834 17.0833C14.8135 17.0833 15.0001 16.8968 15.0001 16.6667C15.0001 16.4365 14.8135 16.25 14.5834 16.25C14.3533 16.25 14.1667 16.4365 14.1667 16.6667C14.1667 16.8968 14.3533 17.0833 14.5834 17.0833Z" fill="#202020"/>
<path d="M22.4999 16.2501C22.73 16.2501 22.9166 16.0635 22.9166 15.8334C22.9166 15.6033 22.73 15.4167 22.4999 15.4167C22.2698 15.4167 22.0833 15.6033 22.0833 15.8334C22.0833 16.0635 22.2698 16.2501 22.4999 16.2501Z" fill="#202020"/>
<path d="M13.7499 19.5833C13.98 19.5833 14.1666 19.3968 14.1666 19.1667C14.1666 18.9365 13.98 18.75 13.7499 18.75C13.5198 18.75 13.3333 18.9365 13.3333 19.1667C13.3333 19.3968 13.5198 19.5833 13.7499 19.5833Z" fill="#202020"/>
</g>
<defs>
<clipPath id="clip0">
<rect width="25" height="25" fill="white"/>
</clipPath>
</defs>
<script xmlns=""/></svg>