<svg width="25" height="25" viewBox="0 0 25 25" fill="none" xmlns="http://www.w3.org/2000/svg">
<g clip-path="url(#clip0)">
<path d="M18.5417 1.45829C17.6618 1.45927 16.7876 1.59905 15.9513 1.87246C15.5054 1.36342 14.8681 1.0625 14.1917 1.04163C12.9369 1.1097 11.6957 1.33493 10.4971 1.71204C10.2174 1.79387 9.95809 1.93387 9.73625 2.12288C8.69941 1.68321 7.58454 1.45717 6.45833 1.45829C2.83708 1.45829 0 4.95829 0 9.42496C0 14.115 3.0325 20.5462 11.495 23.6358C11.5029 23.6395 11.5112 23.642 11.5192 23.645C11.7969 23.7466 12.0811 23.8438 12.3717 23.9366C12.4131 23.9505 12.4564 23.9578 12.5 23.9583C12.5437 23.9584 12.5872 23.9515 12.6287 23.9379C13.4155 23.6828 14.1885 23.3871 14.9446 23.052C14.955 23.0483 14.9658 23.05 14.9762 23.0454C14.9867 23.0408 14.9933 23.032 15.0033 23.027C22.3283 19.75 25 13.82 25 9.42496C25 4.95829 22.1629 1.45829 18.5417 1.45829ZM24.1667 9.42496C24.1177 11.9537 23.3136 14.41 21.8579 16.4783C20.7783 14.0816 19.3996 11.9079 18.6529 11.1637C18.1094 10.5596 17.4175 10.1079 16.6458 9.85329L16.4742 8.64954C17.1862 8.15543 17.5855 7.32288 17.525 6.45829C17.5377 5.09436 17.1802 3.75253 16.4904 2.57579C17.1579 2.38743 17.8481 2.29181 18.5417 2.29163C21.6958 2.29163 24.1667 5.42496 24.1667 9.42496ZM0.833333 9.42496C0.833333 5.42496 3.30417 2.29163 6.45833 2.29163C7.39026 2.29326 8.3138 2.46774 9.18208 2.80621L8.36917 4.02413C8.19653 4.28301 7.93407 4.46872 7.6325 4.54538L5.21292 5.14621C4.85504 5.23676 4.60021 5.5531 4.58792 5.92204C4.56125 6.63038 4.65583 8.99496 6.97625 9.76996C7.01882 9.78425 7.06343 9.79157 7.10833 9.79163C8.33724 9.80576 9.55629 10.013 10.7208 10.4058L10.6192 10.625C9.94923 11.9124 9.59424 13.3404 9.58333 14.7916C9.61113 16.3863 10.2014 17.9199 11.25 19.1216V22.6487C3.59667 19.637 0.833333 13.7433 0.833333 9.42496ZM5.41667 5.95454L6.25 5.74621V6.45829H5.43C5.41583 6.29077 5.41137 6.12258 5.41667 5.95454ZM15.065 22.0795C15.0213 21.8754 14.9995 21.6671 15 21.4583C14.9783 20.4235 15.4449 19.4388 16.2596 18.8004C16.9499 18.3195 17.8346 18.2144 18.6183 18.5204C18.7598 18.5674 18.9155 18.5354 19.027 18.4365C19.1384 18.3375 19.1886 18.1866 19.1586 18.0407C19.1287 17.8947 19.0231 17.7757 18.8817 17.7287C17.8433 17.3404 16.6803 17.4886 15.7725 18.125C14.742 18.921 14.1469 20.1562 14.1667 21.4583C14.165 21.7845 14.2071 22.1095 14.2917 22.4245C13.7217 22.667 13.125 22.8954 12.4979 23.1033C12.3562 23.0566 12.2204 23.0066 12.0813 22.9579V18.9583C12.0813 18.8481 12.0377 18.7423 11.96 18.6641C10.9998 17.5989 10.4524 16.2253 10.4167 14.7916C10.4272 13.4618 10.7558 12.1539 11.375 10.977L11.4767 10.7566C11.5723 10.5528 11.5798 10.3187 11.4975 10.1091C11.4123 9.89579 11.2431 9.7269 11.0296 9.64204C9.79189 9.20712 8.49176 8.97619 7.18 8.95829C6.41055 8.69469 5.81774 8.0728 5.59125 7.29163H6.25C6.71024 7.29163 7.08333 6.91853 7.08333 6.45829V5.54163L7.83708 5.35454C8.33916 5.22696 8.77608 4.91772 9.06333 4.48663L10.0371 3.02829C10.0698 2.97973 10.1059 2.9335 10.145 2.88996C10.2994 2.71154 10.5019 2.58136 10.7283 2.51496C11.8527 2.16275 13.0156 1.94785 14.1917 1.87496C14.7153 1.91812 15.1936 2.18896 15.5 2.61579C16.302 3.7342 16.7201 5.08234 16.6917 6.45829C16.6917 7.25579 16.4075 7.79163 15.8462 8.04663C15.2534 8.27297 14.5957 8.25921 14.0129 8.00829C13.8541 7.94525 13.7499 7.79165 13.75 7.62079V4.79163C13.75 4.56151 13.5635 4.37496 13.3333 4.37496C13.1032 4.37496 12.9167 4.56151 12.9167 4.79163V7.62079C12.9186 8.13268 13.2305 8.59237 13.7054 8.78329C14.3302 9.03799 15.0161 9.10377 15.6779 8.97246L15.8212 9.97246C15.8682 10.3011 16.1073 10.5698 16.4283 10.6545C17.0584 10.8747 17.6215 11.2525 18.0642 11.752C18.7113 12.3954 20.1683 14.6412 21.2879 17.252C19.6186 19.324 17.4876 20.9767 15.0654 22.0779L15.065 22.0795Z" fill="#202020"/>
</g>
<defs>
<clipPath id="clip0">
<rect width="25" height="25" fill="white"/>
</clipPath>
</defs>
<script xmlns=""/></svg>