<svg width="30" height="30" viewBox="0 0 30 30" fill="none" xmlns="http://www.w3.org/2000/svg">
<path d="M7.28232 10.7998C7.50324 10.7998 7.68232 10.6207 7.68232 10.3998C7.68232 10.1788 7.50324 9.99976 7.28232 9.99976C7.06141 9.99976 6.88232 10.1788 6.88232 10.3998C6.88232 10.6207 7.06141 10.7998 7.28232 10.7998Z" fill="#202020"/>
<path d="M6.48252 23.1998C6.70362 23.1998 6.88252 23.0207 6.88252 22.7998V21.9998C6.88252 21.779 6.70362 21.5999 6.48252 21.5999C6.26142 21.5999 6.08252 21.779 6.08252 21.9998V22.7998C6.08252 23.0207 6.26142 23.1998 6.48252 23.1998Z" fill="#202020"/>
<path d="M6.48252 23.9998C6.26142 23.9998 6.08252 24.1789 6.08252 24.3998V25.1997C6.08252 25.4206 6.26142 25.5997 6.48252 25.5997C6.70362 25.5997 6.88252 25.4206 6.88252 25.1997V24.3998C6.88252 24.1789 6.70362 23.9998 6.48252 23.9998Z" fill="#202020"/>
<path d="M5.68242 23.1998H4.88242C4.66132 23.1998 4.48242 23.3789 4.48242 23.5998C4.48242 23.8207 4.66132 23.9999 4.88242 23.9999H5.68242C5.90352 23.9999 6.08242 23.8207 6.08242 23.5998C6.08242 23.3789 5.90352 23.1998 5.68242 23.1998Z" fill="#202020"/>
<path d="M8.08232 23.1998H7.28232C7.06122 23.1998 6.88232 23.3789 6.88232 23.5998C6.88232 23.8207 7.06122 23.9999 7.28232 23.9999H8.08232C8.30342 23.9999 8.48232 23.8207 8.48232 23.5998C8.48232 23.3789 8.30342 23.1998 8.08232 23.1998Z" fill="#202020"/>
<path d="M21.1592 10.5224C21.3408 10.6195 21.5393 10.6689 21.7396 10.6689C21.8599 10.6689 21.9806 10.6511 22.099 10.6152C22.4146 10.5197 22.674 10.307 22.8295 10.0164C22.9846 9.72578 23.0178 9.39197 22.9221 9.07657C22.8264 8.76117 22.6139 8.50197 22.3233 8.34647C22.0327 8.19096 21.6983 8.15736 21.3836 8.25367C21.0684 8.34917 20.809 8.56187 20.6535 8.85247C20.498 9.14307 20.4648 9.47687 20.5605 9.79228C20.6562 10.1077 20.8686 10.3669 21.1592 10.5224ZM21.3588 9.22977C21.4135 9.12767 21.5045 9.05277 21.6154 9.01927C21.6571 9.00657 21.6993 9.00037 21.7419 9.00037C21.8122 9.00037 21.8817 9.01777 21.9458 9.05197C22.0478 9.10667 22.1228 9.19767 22.1563 9.30857C22.1898 9.41947 22.1786 9.53687 22.1239 9.63908C22.0692 9.74128 21.9778 9.81608 21.8669 9.84958C21.6389 9.91818 21.3951 9.78938 21.326 9.56027C21.2924 9.44927 21.3041 9.33187 21.3588 9.22977Z" fill="#202020"/>
<path d="M25.2144 25.0234C23.3491 24.5571 22.2152 22.752 21.7944 21.9527L23.0273 21.5416C23.3074 21.9924 23.9101 22.8111 24.7324 23.0852C24.7746 23.0993 24.8172 23.1059 24.859 23.1059C25.0266 23.1059 25.1828 22.9998 25.2383 22.8321C25.3082 22.6225 25.1949 22.3962 24.9856 22.3262C24.3079 22.1004 23.7336 21.2051 23.5692 20.8791C23.4801 20.702 23.2751 20.6162 23.0852 20.6791L21.1206 21.334C20.9951 21.3674 17.5312 22.2778 14.734 21.6564C12.9703 21.2644 11.3 20.0171 10.0805 19.1062C9.91574 18.9832 9.75944 18.8666 9.61294 18.7593C9.40514 18.6075 9.08284 18.4841 8.79814 18.3751C8.67744 18.329 8.51264 18.2657 8.48174 18.2483C8.46294 18.2337 8.45904 18.2137 8.45904 18.1997V17.4388C8.48604 16.8033 11.011 7.53722 11.3852 6.39642C11.3934 6.38742 11.418 6.37022 11.4348 6.36222L16.3969 4.09582L17.9824 6.16012C18.0426 6.24272 18.0371 6.35802 17.9691 6.43432L16.3675 8.22992C16.2882 8.31822 16.155 8.32872 16.0773 8.26372L15.4296 7.66662C15.3351 7.57932 15.2069 7.53732 15.0808 7.56372C14.9546 7.58972 14.8519 7.66962 14.7992 7.78712C14.7156 7.89042 14.2332 7.99282 13.8164 7.99672L13.6574 7.98072C13.4972 7.96372 13.3445 8.04482 13.2672 8.18442C13.1895 8.32422 13.2027 8.49692 13.3004 8.62332C13.4301 8.79112 13.5332 8.92782 13.5961 9.01242L13.9121 14.3871L13.6305 14.9507C13.5317 15.1482 13.6117 15.3884 13.8094 15.4872C13.8668 15.5159 13.9278 15.5294 13.9879 15.5294C14.1348 15.5294 14.2762 15.4483 14.3461 15.3081L14.6321 14.7357C17.1975 12.8027 19.4425 14.5937 19.642 14.761C20.4433 15.5656 20.5035 16.0982 20.5059 16.1282C20.5118 16.3442 20.6887 16.5175 20.9059 16.5175C21.127 16.5175 21.3059 16.3384 21.3059 16.1175C21.3059 16.0402 21.2775 15.3848 20.4452 14.4485C21.6711 12.964 23.1296 12.4847 24.7848 13.0267C24.9938 13.0958 25.2207 12.9806 25.2891 12.771C25.3579 12.561 25.2434 12.3351 25.0332 12.2665C23.6461 11.8118 21.6441 11.7509 19.8418 13.9208C19.0539 13.4003 16.9895 12.3544 14.6754 13.7401L14.3875 8.84692C14.3859 8.81582 14.3805 8.78522 14.3715 8.75572C14.634 8.71722 14.9277 8.64422 15.1606 8.50652L15.5489 8.86412C15.9735 9.22112 16.5958 9.17642 16.9645 8.76232L18.5661 6.96682C18.8833 6.61092 18.9099 6.07322 18.6227 5.68072L16.8375 3.35632C16.7238 3.20832 16.5223 3.15922 16.3543 3.23602L11.1074 5.63252C11.0476 5.65892 10.7453 5.80522 10.6441 6.10872C10.3375 7.02782 7.65894 16.6751 7.65894 17.4353V18.1999C7.65894 18.4671 7.77884 18.7144 7.98824 18.8784C8.09214 18.9596 8.23944 19.018 8.51204 19.1223C8.72614 19.2043 9.01904 19.3164 9.14054 19.4051C9.28504 19.511 9.43894 19.626 9.60144 19.7473C10.8791 20.7014 12.6291 22.0082 14.5604 22.4373C17.0956 23.0008 20.035 22.415 21.0112 22.1855C21.4057 22.9804 22.6007 25.0287 24.7174 25.7128V26.3997C24.7174 26.6206 24.8963 26.7997 25.1174 26.7997C25.3385 26.7997 25.5174 26.6206 25.5174 26.3997V25.4114C25.5175 25.2279 25.3925 25.068 25.2144 25.0234Z" fill="#202020"/>
<path d="M18.5159 20.0086C14.2542 20.9231 12.4296 18.0115 12.3538 17.8871C12.2401 17.6984 11.9952 17.6375 11.8058 17.751C11.6163 17.8647 11.555 18.1104 11.6687 18.2998C11.691 18.3365 12.223 19.2105 13.3574 19.9523C14.1383 20.4627 15.3293 20.9831 16.9386 20.9831C17.4738 20.9831 18.0554 20.9255 18.6839 20.7909C18.8999 20.7446 19.0374 20.5319 18.9909 20.3159C18.9448 20.0997 18.7343 19.9617 18.5159 20.0086Z" fill="#202020"/>
<script xmlns=""/></svg>