<svg width="30" height="30" viewBox="0 0 30 30" fill="none" xmlns="http://www.w3.org/2000/svg">
<path d="M9.63018 20.5781C13.9104 20.5781 16.2677 18.0637 16.2677 13.4981C16.2677 9.22346 10.217 2.42716 9.95946 2.14044C9.87325 2.05078 9.75442 2 9.63018 2C9.50594 2 9.38689 2.05078 9.3009 2.14044C9.04335 2.42716 2.99268 9.22346 2.99268 13.4981C2.99268 18.0637 5.34994 20.5781 9.63018 20.5781ZM9.63018 3.11079C10.897 4.59753 15.3827 10.1 15.3827 13.4981C15.3827 16.3242 14.3845 19.6931 9.63018 19.6931C4.87589 19.6931 3.87768 16.3242 3.87768 13.4981C3.87768 10.1 8.36318 4.59753 9.63018 3.11079Z" fill="#202020"/>
<path d="M22.0201 21.4631C24.5511 21.4631 26.0026 19.7741 26.0026 16.8283C26.0026 14.0622 22.4931 10.2599 22.344 10.0992C22.2584 10.0127 22.1417 9.96411 22.0201 9.96411C21.8985 9.96411 21.7818 10.0127 21.6962 10.0992C21.5471 10.2599 18.0376 14.0622 18.0376 16.8283C18.0376 19.7741 19.4889 21.4631 22.0201 21.4631ZM22.0201 11.0686C22.8736 12.0617 25.1176 14.8601 25.1176 16.8283C25.1176 19.3165 24.0755 20.5781 22.0201 20.5781C19.9647 20.5781 18.9226 19.3165 18.9226 16.8283C18.9226 14.8601 21.1664 12.0617 22.0201 11.0686Z" fill="#202020"/>
<path d="M15.4932 19.8426C15.3804 19.9706 12.7275 23.0004 12.7275 25.0031C12.7275 27.2528 13.8567 28.5431 15.825 28.5431C17.7932 28.5431 18.9225 27.2528 18.9225 25.0031C18.9225 23.0004 16.2697 19.9706 16.1569 19.8426C16.0705 19.7515 15.9506 19.6998 15.825 19.6998C15.6995 19.6998 15.5794 19.7515 15.4932 19.8426ZM15.825 27.6581C14.3573 27.6581 13.6125 26.7647 13.6125 25.0031C13.6125 23.8003 14.9971 21.8423 15.825 20.8223C16.6534 21.8402 18.0375 23.7986 18.0375 25.0031C18.0375 26.7647 17.2928 27.6581 15.825 27.6581Z" fill="#202020"/>
<path d="M8.70093 18.8059C8.71562 18.8074 8.73031 18.808 8.74522 18.808C8.98095 18.808 9.17541 18.6231 9.18729 18.3876C9.19896 18.1521 9.02416 17.9487 8.78952 17.9252C7.86519 17.8787 7.00482 17.4395 6.42512 16.718C5.24822 15.1836 5.638 12.7098 5.64145 12.6852C5.67365 12.4482 5.5116 12.2285 5.27566 12.1891C5.03971 12.15 4.81522 12.3054 4.76898 12.54C4.74932 12.6569 4.3105 15.41 5.71988 17.2526C6.445 18.1737 7.53051 18.7393 8.70093 18.8059Z" fill="#202020"/>
<path d="M21.5778 19.6931C22.3943 19.6815 23.1727 19.3461 23.7421 18.7608C24.2349 18.1269 24.4132 17.3035 24.2265 16.5226C24.1811 16.2867 23.956 16.13 23.719 16.1696C23.4819 16.2093 23.3199 16.4308 23.354 16.6687C23.4895 17.1911 23.3854 17.747 23.0699 18.185C22.6695 18.5744 22.1361 18.7971 21.5778 18.8081C21.3334 18.8081 21.1353 19.0063 21.1353 19.2506C21.1353 19.495 21.3334 19.6931 21.5778 19.6931Z" fill="#202020"/>
<path d="M15.5803 25.9345C15.4422 25.8787 15.3357 25.7653 15.2886 25.624C15.2417 25.4829 15.259 25.328 15.3361 25.2007C15.4453 24.9821 15.3567 24.7161 15.1378 24.607C14.9191 24.4976 14.6534 24.5864 14.5441 24.8051C14.3621 25.143 14.3278 25.5412 14.449 25.9053C14.5704 26.2694 14.8366 26.5673 15.1847 26.7287C15.4036 26.8381 15.6693 26.7492 15.7786 26.5304C15.8878 26.3117 15.7992 26.046 15.5803 25.9366V25.9345Z" fill="#202020"/>
<script xmlns=""/></svg>